<?xml version="1.0" encoding="UTF-8"?>
<svg width="91px" height="20px" viewBox="0 0 91 20" version="1.1" xmlns="http://www.w3.org/2000/svg" xmlns:xlink="http://www.w3.org/1999/xlink">
    <!-- Generator: Sketch 55.1 (78136) - https://sketchapp.com -->
    <title>Group 2</title>
    <desc>Created with Sketch.</desc>
    <g id="Page-1" stroke="none" stroke-width="1" fill="none" fill-rule="evenodd">
        <g id="Group-2" transform="translate(0.000000, -1.000000)">
            <g id="Group" transform="translate(0.000000, 1.000000)" fill="#474FDF" fill-rule="nonzero">
                <polygon id="Path" points="0 0 20 0 20 20 0 20"></polygon>
                <polygon id="Path" points="20 0 91 0 91 20 20 20"></polygon>
            </g>
            <path d="M9.81970621,2.83750958 C9.81970621,2.27916986 10.0464708,2 10.5,2 C10.9535292,2 11.1944017,2.27916986 11.2226175,2.83750958 L11.2226175,12.0755093 C11.1991466,12.6635727 10.9582741,12.9576044 10.5,12.9576044 C10.0417259,12.9576044 9.81496128,12.6635727 9.81970621,12.0755093 L9.81970621,2.83750958 Z M12.5819034,6.27448837 C12.5819034,5.84732437 12.7759315,5.63374237 13.1639878,5.63374237 C13.552044,5.63374237 13.7501606,5.84732437 13.7583374,6.27448837 L13.7583374,12.9700758 C13.7235708,13.374956 13.5254543,13.5773961 13.1639878,13.5773961 C12.8025213,13.5773961 12.6084932,13.374956 12.5819034,12.9700758 L12.5819034,6.27448837 Z M9.62419523,15.7340635 C9.62416504,15.2854054 9.98787424,14.9216962 10.4365323,14.9216962 C10.8946424,14.9216962 11.266014,15.2930678 11.2659863,15.7511779 L11.2659863,18.1705288 C11.2660034,18.6286331 10.8946366,19 10.4365323,19 C9.9878773,19 9.62417058,18.6362933 9.62419523,18.1876383 L9.62419523,15.7340635 Z M15.0149254,11.330795 C15.014925,11.06161 15.2331426,10.8433925 15.5023276,10.8433925 C15.7771725,10.8433925 15.9999784,11.0661983 16,11.3410432 L16,13.6083647 C15.9999984,13.8832207 15.7771836,14.1060355 15.5023276,14.1060355 C15.2331562,14.1060355 15.0149497,13.8878289 15.0149254,13.6186575 L15.0149254,11.330795 Z M5,11.330795 C4.99999966,11.06161 5.21821722,10.8433925 5.48740223,10.8433925 C5.76224715,10.8433925 5.98505298,11.0661983 5.98507463,11.3410432 L5.98507463,13.6083647 C5.985073,13.8832207 5.76225821,14.1060355 5.48740223,14.1060355 C5.21823082,14.1060355 5.00002428,13.8878289 5,13.6186575 L5,11.330795 Z M7.21641791,6.27448837 C7.21641791,5.84732437 7.41044604,5.63374237 7.7985023,5.63374237 C8.18655857,5.63374237 8.38467511,5.84732437 8.39285194,6.27448837 L8.39285194,12.9700758 C8.35808532,13.374956 8.15996877,13.5773961 7.7985023,13.5773961 C7.43703584,13.5773961 7.2430077,13.374956 7.21641791,12.9700758 L7.21641791,6.27448837 Z" id="Combined-Shape" fill="#FFFFFF" transform="translate(10.500000, 10.500000) rotate(45.000000) translate(-10.500000, -10.500000) "></path>
            <g id="Group" transform="translate(26.000000, 6.000000)" fill="#FFFFFF" fill-rule="nonzero">
                <path d="M0.000153497668,8.45730767 L0.445296736,7.9496154 C1.08461452,8.6742308 1.98871579,9.12115387 2.98952058,9.12115387 C4.29118081,9.12115387 5.09934604,8.43269233 5.09934604,7.4296154 C5.09934604,6.36653846 4.41167648,6.02807692 3.54364717,5.64192308 L2.22970713,5.06192308 C1.44610153,4.71192308 0.445296736,4.15576923 0.445296736,2.86423077 C0.445296736,1.55807692 1.55431739,0.652692308 3.05015216,0.652692308 C4.11005356,0.652692308 4.97808288,1.11115385 5.53297695,1.715 L5.12313817,2.18730769 C4.60431606,1.65576923 3.91741399,1.30423077 3.05015216,1.30423077 C1.9288517,1.30423077 1.18131805,1.89653846 1.18131805,2.80192308 C1.18131805,3.80576923 2.03706755,4.17961539 2.67561786,4.45807692 L3.98955789,5.03807692 C4.99036269,5.48576923 5.83459987,6.04038461 5.83459987,7.38192307 C5.83459987,8.7342308 4.7132994,9.7742308 2.98952058,9.7742308 C1.7116525,9.7742308 0.698567886,9.24269233 0.000153497668,8.45730767" id="Fill-1"></path>
                <path d="M11.2381016,8.24546153 L11.2381016,6.08930769 C8.70692501,6.37930769 7.83812817,6.97084613 7.83812817,7.9616154 C7.83812817,8.84315387 8.44060655,9.1823846 9.15206823,9.1823846 C9.86429741,9.1823846 10.4782881,8.90930767 11.2381016,8.24546153 M11.2503813,8.8616154 C10.5987837,9.3923846 9.82745798,9.77392307 9.00854792,9.77392307 C7.97090368,9.77392307 7.13894627,9.19315387 7.13894627,7.9977692 C7.13894627,6.57238461 8.40606954,5.89546154 11.2381016,5.56930769 C11.2618936,4.61546154 10.9848304,3.62392308 9.76759389,3.62392308 C8.92335669,3.62392308 8.18810286,4.02392308 7.74219215,4.36161539 L7.42905688,3.85392308 C7.92331939,3.51623077 8.81514082,3.00776923 9.86429741,3.00776923 C11.3946692,3.00776923 11.9365159,4.10776923 11.9365159,5.53392308 L11.9365159,9.617 L11.3470849,9.617 L11.2803134,8.867" id="Fill-3"></path>
                <path d="M21.1352475,5.95653846 C21.1352475,4.39730769 20.4237858,3.61192308 19.3032527,3.61192308 C18.2548637,3.61192308 17.313923,4.48192308 17.181915,5.95653846 L21.1352475,5.95653846 Z M16.4712208,6.40269231 C16.4712208,4.31346154 17.8319776,3.00807692 19.2909729,3.00807692 C20.8459043,3.00807692 21.7745652,4.11961539 21.7745652,6.00423077 C21.7745652,6.18576923 21.7615179,6.355 21.7377258,6.51269231 L17.181915,6.51269231 C17.217987,8.08269233 18.1458803,9.18192307 19.5319643,9.18192307 C20.2196339,9.18192307 20.7622481,8.9642308 21.2442308,8.62653847 L21.5090142,9.1457692 C20.9909596,9.47192307 20.3877138,9.7742308 19.4598204,9.7742308 C17.8081855,9.7742308 16.4712208,8.51653847 16.4712208,6.40269231 L16.4712208,6.40269231 Z" id="Fill-5"></path>
                <path d="M22.8066836,8.89153847 L23.1796829,8.3846154 C23.7345769,8.8553846 24.3255429,9.19384613 25.2050846,9.19384613 C26.1805623,9.19384613 26.6755923,8.63846153 26.6755923,7.9746154 C26.6755923,7.21230767 25.8681945,6.86230767 25.1206609,6.59692308 C24.1674404,6.25846154 23.1083065,5.86 23.1083065,4.74846154 C23.1083065,3.80615385 23.8665849,3.00846154 25.2173644,3.00846154 C25.9165463,3.00846154 26.6026809,3.31 27.0846635,3.69692308 L26.723944,4.18 C26.2895456,3.85384615 25.8198428,3.6 25.1928048,3.6 C24.2403518,3.6 23.8067209,4.13230769 23.8067209,4.71153846 C23.8067209,5.42384615 24.553487,5.69076923 25.3010207,5.96846154 C26.2895456,6.34307692 27.3747741,6.69384613 27.3747741,7.93769233 C27.3747741,8.92846153 26.5911685,9.77384613 25.1690127,9.77384613 C24.2288394,9.77384613 23.3846023,9.3746154 22.8066836,8.89153847" id="Fill-7"></path>
                <path d="M33.5252722,6.24653846 C33.5252722,4.79653846 33.0440571,3.81807692 31.8022609,3.81807692 C31.2473668,3.81807692 30.6686806,4.13192308 30.0424101,4.72423077 L30.0424101,8.47346153 C30.6947752,8.88192307 31.2112948,8.8557692 31.6456933,8.8557692 C32.7301543,8.8557692 33.5252722,7.87730767 33.5252722,6.24653846 M29.8743302,9.2696154 L29.8259784,9.61730767 L28.9456693,9.61730767 L28.9456693,0.000384615385 L30.0424101,0.000384615385 L30.0424101,2.63346154 L30.0063381,3.81807692 C30.5973042,3.29807692 31.332558,2.88730769 32.055532,2.88730769 C33.7547512,2.88730769 34.6711323,4.21576923 34.6711323,6.22192308 C34.6711323,8.48115387 33.3334001,9.7742308 31.826053,9.7742308 C31.2235747,9.7742308 30.5573948,9.6496154 29.9579864,9.24653847" id="Fill-9"></path>
                <path d="M40.8464202,6.34269231 C40.8464202,4.83269231 40.0750945,3.80576923 38.9422817,3.80576923 C37.8094689,3.80576923 37.0496554,4.83269231 37.0496554,6.34269231 C37.0496554,7.85346153 37.8094689,8.8557692 38.9422817,8.8557692 C40.0750945,8.8557692 40.8464202,7.85346153 40.8464202,6.34269231 M35.9053303,6.34269231 C35.9053303,4.15576923 37.339766,2.88730769 38.9422817,2.88730769 C40.5447973,2.88730769 41.9800005,4.15576923 41.9800005,6.34269231 C41.9800005,8.51653847 40.5447973,9.7742308 38.9422817,9.7742308 C37.339766,9.7742308 35.9053303,8.51653847 35.9053303,6.34269231" id="Fill-11"></path>
                <path d="M48.1555187,6.34269231 C48.1555187,4.83269231 47.3834255,3.80576923 46.2506127,3.80576923 C45.1177999,3.80576923 44.3587539,4.83269231 44.3587539,6.34269231 C44.3587539,7.85346153 45.1177999,8.8557692 46.2506127,8.8557692 C47.3834255,8.8557692 48.1555187,7.85346153 48.1555187,6.34269231 M43.2136613,6.34269231 C43.2136613,4.15576923 44.648097,2.88730769 46.2506127,2.88730769 C47.8538958,2.88730769 49.2883315,4.15576923 49.2883315,6.34269231 C49.2883315,8.51653847 47.8538958,9.7742308 46.2506127,9.7742308 C44.648097,9.7742308 43.2136613,8.51653847 43.2136613,6.34269231" id="Fill-13"></path>
                <path d="M50.2803102,8.8682308 L50.8229245,8.1436154 C51.3885633,8.60130767 51.9802969,8.91592307 52.763135,8.91592307 C53.6311643,8.91592307 54.0532829,8.45746153 54.0532829,7.8897692 C54.0532829,7.2243846 53.2819571,6.92284613 52.5589831,6.64438461 C51.6418345,6.30669231 50.6057252,5.85976923 50.6057252,4.749 C50.6057252,3.709 51.4376826,2.88746154 52.8598385,2.88746154 C53.6680037,2.88746154 54.378698,3.22592308 54.89752,3.62438461 L54.3664181,4.33669231 C53.9089951,3.999 53.450037,3.75746154 52.8598385,3.75746154 C52.0401609,3.75746154 51.6663942,4.19284615 51.6663942,4.70053846 C51.6663942,5.32746154 52.3770884,5.55746154 53.1131097,5.83592308 C54.0655627,6.19746154 55.1139518,6.58361539 55.1139518,7.8282308 C55.1139518,8.89130767 54.2704821,9.7743846 52.7270631,9.7743846 C51.7991696,9.7743846 50.9073482,9.38746154 50.2803102,8.8682308" id="Fill-15"></path>
                <path d="M56.9119467,7.58746153 L56.9119467,3.95053846 L55.9357016,3.95053846 L55.9357016,3.11746154 L56.959531,3.05592308 L57.0923065,1.22130769 L58.0086875,1.22130769 L58.0086875,3.05592308 L59.7808181,3.05592308 L59.7808181,3.95053846 L58.0086875,3.95053846 L58.0086875,7.61053847 C58.0086875,8.42053847 58.2619587,8.88053847 59.0210047,8.88053847 C59.2504837,8.88053847 59.5513391,8.79515387 59.7685383,8.71053847 L59.9857375,9.53207693 C59.6127381,9.6536154 59.1775723,9.7743846 58.7807808,9.7743846 C57.3816496,9.7743846 56.9119467,8.9036154 56.9119467,7.58746153" id="Fill-17"></path>
                <polygon id="Fill-20" points="14.018942 9.80815387 14.6528874 9.80815387 14.6528874 0.012 14.018942 0.012"></polygon>
            </g>
        </g>
    </g>
</svg>